<svg width="491" height="49" viewBox="0 0 491 49" fill="none" xmlns="http://www.w3.org/2000/svg">
<path d="M99.4451 40.1434C98.3716 40.1427 97.3424 39.7155 96.5837 38.9557C95.8249 38.196 95.3987 37.1658 95.3987 36.0917C95.3987 35.0176 95.8249 33.9875 96.5837 33.2277C97.3424 32.468 98.3716 32.0408 99.4451 32.0401H159.59C159.287 31.4844 158.841 31.0205 158.297 30.6971C157.753 30.3738 157.133 30.2029 156.5 30.2025H36.949C35.3893 30.2042 33.8941 30.8255 32.7918 31.9298C31.6896 33.034 31.0706 34.531 31.0708 36.0917C31.0716 37.6522 31.6909 39.1486 32.7929 40.2526C33.8949 41.3567 35.3896 41.9783 36.949 41.981H156.5C157.133 41.9806 157.753 41.8097 158.297 41.4863C158.841 41.163 159.287 40.6991 159.59 40.1434L99.4451 40.1434Z" fill="#CCCCCC"/>
<path d="M159.669 34.2727H102.486C102.398 34.2724 102.315 34.2375 102.253 34.1755C102.191 34.1135 102.156 34.0295 102.156 33.9419C102.156 33.8543 102.191 33.7703 102.253 33.7083C102.315 33.6463 102.398 33.6114 102.486 33.6111H159.669C159.757 33.6114 159.841 33.6463 159.903 33.7083C159.964 33.7703 159.999 33.8543 159.999 33.9419C159.999 34.0295 159.964 34.1135 159.903 34.1755C159.841 34.2375 159.757 34.2724 159.669 34.2727Z" fill="#CCCCCC"/>
<path d="M159.669 36.4225H102.486C102.398 36.4225 102.314 36.3877 102.252 36.3256C102.19 36.2636 102.155 36.1795 102.155 36.0917C102.155 36.004 102.19 35.9199 102.252 35.8579C102.314 35.7958 102.398 35.761 102.486 35.761H159.669C159.757 35.761 159.841 35.7958 159.903 35.8579C159.965 35.9199 160 36.004 160 36.0917C160 36.1795 159.965 36.2636 159.903 36.3256C159.841 36.3877 159.757 36.4225 159.669 36.4225V36.4225Z" fill="#CCCCCC"/>
<path d="M159.669 38.5724H102.486C102.398 38.5721 102.315 38.5372 102.253 38.4752C102.191 38.4132 102.156 38.3292 102.156 38.2416C102.156 38.154 102.191 38.07 102.253 38.008C102.315 37.946 102.398 37.9111 102.486 37.9109H159.669C159.757 37.9111 159.841 37.946 159.903 38.008C159.964 38.07 159.999 38.154 159.999 38.2416C159.999 38.3292 159.964 38.4132 159.903 38.4752C159.841 38.5372 159.757 38.5721 159.669 38.5724Z" fill="#CCCCCC"/>
<path d="M83.9096 28.7326C82.8362 28.7318 81.807 28.3046 81.0482 27.5449C80.2895 26.7851 79.8633 25.755 79.8633 24.6809C79.8633 23.6068 80.2895 22.5767 81.0482 21.8169C81.807 21.0571 82.8362 20.63 83.9096 20.6292H144.054C143.752 20.0735 143.305 19.6097 142.762 19.2863C142.218 18.963 141.597 18.7921 140.965 18.7916H21.4137C19.8539 18.7934 18.3587 19.4146 17.2565 20.5189C16.1542 21.6232 15.5352 23.1201 15.5353 24.6809C15.5361 26.2413 16.1555 27.7377 17.2575 28.8418C18.3595 29.9459 19.8542 30.5674 21.4137 30.5702H140.965C141.597 30.5697 142.218 30.3988 142.762 30.0755C143.305 29.7521 143.752 29.2882 144.054 28.7326L83.9096 28.7326Z" fill="#0D6EFD"/>
<path d="M144.134 22.8618H86.9506C86.8631 22.8616 86.7792 22.8266 86.7174 22.7646C86.6556 22.7026 86.6208 22.6186 86.6208 22.531C86.6208 22.4434 86.6556 22.3594 86.7174 22.2974C86.7792 22.2354 86.8631 22.2005 86.9506 22.2003H144.134C144.222 22.2003 144.306 22.2351 144.368 22.2972C144.43 22.3592 144.465 22.4433 144.465 22.531C144.465 22.6187 144.43 22.7029 144.368 22.7649C144.306 22.8269 144.222 22.8618 144.134 22.8618V22.8618Z" fill="#CCCCCC"/>
<path d="M144.134 25.0116H86.9506C86.8629 25.0116 86.7789 24.9768 86.7169 24.9148C86.6549 24.8527 86.6201 24.7686 86.6201 24.6809C86.6201 24.5932 86.6549 24.509 86.7169 24.447C86.7789 24.385 86.8629 24.3501 86.9506 24.3501H144.134C144.222 24.3501 144.306 24.385 144.368 24.447C144.43 24.509 144.465 24.5932 144.465 24.6809C144.465 24.7686 144.43 24.8527 144.368 24.9148C144.306 24.9768 144.222 25.0116 144.134 25.0116V25.0116Z" fill="#CCCCCC"/>
<path d="M144.134 27.1615H86.9506C86.8631 27.1613 86.7792 27.1264 86.7174 27.0644C86.6556 27.0024 86.6208 26.9183 86.6208 26.8308C86.6208 26.7432 86.6556 26.6592 86.7174 26.5972C86.7792 26.5352 86.8631 26.5002 86.9506 26.5H144.134C144.178 26.4999 144.221 26.5084 144.261 26.525C144.301 26.5415 144.338 26.5659 144.368 26.5966C144.399 26.6273 144.424 26.6638 144.44 26.704C144.457 26.7442 144.465 26.7873 144.465 26.8308C144.465 26.8743 144.457 26.9173 144.44 26.9575C144.424 26.9977 144.399 27.0342 144.368 27.0649C144.338 27.0956 144.301 27.12 144.261 27.1366C144.221 27.1531 144.178 27.1616 144.134 27.1615V27.1615Z" fill="#CCCCCC"/>
<path d="M68.3742 16.941C67.3008 16.9403 66.2716 16.5131 65.5129 15.7533C64.7541 14.9935 64.3279 13.9634 64.3279 12.8893C64.3279 11.8152 64.7541 10.7851 65.5129 10.0253C66.2716 9.26556 67.3008 8.83836 68.3742 8.83762H128.519C128.216 8.28196 127.77 7.81808 127.226 7.49473C126.683 7.17138 126.062 7.00048 125.43 7H5.87823C4.3185 7.00175 2.82325 7.62303 1.72104 8.72731C0.618824 9.8316 -0.000194062 11.3286 4.56365e-08 12.8893C0.000789166 14.4497 0.620122 15.9461 1.72212 17.0502C2.82412 18.1543 4.3188 18.7758 5.87823 18.7786H125.43C126.062 18.7781 126.683 18.6072 127.226 18.2839C127.77 17.9605 128.216 17.4966 128.519 16.941L68.3742 16.941Z" fill="#CCCCCC"/>
<path d="M128.599 11.0702H71.4152C71.3277 11.07 71.2438 11.035 71.182 10.973C71.1202 10.911 71.0854 10.827 71.0854 10.7394C71.0854 10.6518 71.1202 10.5678 71.182 10.5058C71.2438 10.4438 71.3277 10.4089 71.4152 10.4087H128.599C128.686 10.4087 128.77 10.4435 128.832 10.5056C128.894 10.5676 128.929 10.6517 128.929 10.7394C128.929 10.8272 128.894 10.9113 128.832 10.9733C128.77 11.0353 128.686 11.0702 128.599 11.0702Z" fill="#CCCCCC"/>
<path d="M128.599 13.22H71.4152C71.3718 13.22 71.3288 13.2115 71.2887 13.1949C71.2486 13.1783 71.2122 13.1539 71.1815 13.1232C71.1508 13.0925 71.1264 13.056 71.1098 13.0159C71.0932 12.9757 71.0847 12.9327 71.0847 12.8893C71.0847 12.8459 71.0932 12.8028 71.1098 12.7627C71.1264 12.7226 71.1508 12.6861 71.1815 12.6554C71.2122 12.6247 71.2486 12.6003 71.2887 12.5837C71.3288 12.5671 71.3718 12.5585 71.4152 12.5585H128.599C128.642 12.5585 128.685 12.5671 128.725 12.5837C128.765 12.6003 128.802 12.6247 128.832 12.6554C128.863 12.6861 128.887 12.7226 128.904 12.7627C128.921 12.8028 128.929 12.8459 128.929 12.8893C128.929 12.9327 128.921 12.9757 128.904 13.0159C128.887 13.056 128.863 13.0925 128.832 13.1232C128.802 13.1539 128.765 13.1783 128.725 13.1949C128.685 13.2115 128.642 13.22 128.599 13.22V13.22Z" fill="#CCCCCC"/>
<path d="M128.599 15.3699H71.4152C71.3275 15.3699 71.2435 15.3351 71.1815 15.273C71.1195 15.211 71.0847 15.1269 71.0847 15.0392C71.0847 14.9515 71.1195 14.8673 71.1815 14.8053C71.2435 14.7433 71.3275 14.7084 71.4152 14.7084H128.599C128.642 14.7084 128.685 14.717 128.725 14.7336C128.765 14.7502 128.802 14.7746 128.832 14.8053C128.863 14.836 128.887 14.8725 128.904 14.9126C128.921 14.9527 128.929 14.9957 128.929 15.0392C128.929 15.0826 128.921 15.1256 128.904 15.1658C128.887 15.2059 128.863 15.2423 128.832 15.273C128.802 15.3038 128.765 15.3281 128.725 15.3448C128.685 15.3614 128.642 15.3699 128.599 15.3699V15.3699Z" fill="#CCCCCC"/>
<path d="M184.84 39.48C182.627 39.48 180.587 39.1333 178.72 38.44C176.88 37.72 175.267 36.7067 173.88 35.4C172.52 34.0933 171.453 32.56 170.68 30.8C169.933 29.04 169.56 27.1067 169.56 25C169.56 22.8933 169.933 20.96 170.68 19.2C171.453 17.44 172.533 15.9067 173.92 14.6C175.307 13.2933 176.933 12.2933 178.8 11.6C180.667 10.88 182.72 10.52 184.96 10.52C187.44 10.52 189.667 10.9333 191.64 11.76C193.64 12.5867 195.32 13.7867 196.68 15.36L192.52 19.2C191.507 18.1333 190.4 17.3467 189.2 16.84C188 16.3067 186.693 16.04 185.28 16.04C183.92 16.04 182.68 16.2533 181.56 16.68C180.44 17.1067 179.467 17.72 178.64 18.52C177.84 19.32 177.213 20.2667 176.76 21.36C176.333 22.4533 176.12 23.6667 176.12 25C176.12 26.3067 176.333 27.5067 176.76 28.6C177.213 29.6933 177.84 30.6533 178.64 31.48C179.467 32.28 180.427 32.8933 181.52 33.32C182.64 33.7467 183.867 33.96 185.2 33.96C186.48 33.96 187.72 33.76 188.92 33.36C190.147 32.9333 191.333 32.2267 192.48 31.24L196.16 35.92C194.64 37.0667 192.867 37.9467 190.84 38.56C188.84 39.1733 186.84 39.48 184.84 39.48ZM190.24 35.08V24.56H196.16V35.92L190.24 35.08ZM204.459 47.08C203.339 47.08 202.233 46.9067 201.139 46.56C200.046 46.2133 199.153 45.7333 198.459 45.12L200.739 40.68C201.219 41.1067 201.766 41.44 202.379 41.68C203.019 41.92 203.646 42.04 204.259 42.04C205.139 42.04 205.833 41.8267 206.339 41.4C206.873 41 207.353 40.32 207.779 39.36L208.899 36.72L209.379 36.04L217.099 17.48H223.099L213.379 40.32C212.686 42.0533 211.886 43.4133 210.979 44.4C210.099 45.3867 209.113 46.08 208.019 46.48C206.953 46.88 205.766 47.08 204.459 47.08ZM208.139 39.84L198.539 17.48H204.979L212.419 35.48L208.139 39.84ZM238.143 39V34.8L237.743 33.88V26.36C237.743 25.0267 237.329 23.9867 236.503 23.24C235.703 22.4933 234.463 22.12 232.783 22.12C231.636 22.12 230.503 22.3067 229.383 22.68C228.289 23.0267 227.356 23.5067 226.583 24.12L224.343 19.76C225.516 18.9333 226.929 18.2933 228.583 17.84C230.236 17.3867 231.916 17.16 233.623 17.16C236.903 17.16 239.449 17.9333 241.263 19.48C243.076 21.0267 243.983 23.44 243.983 26.72V39H238.143ZM231.583 39.32C229.903 39.32 228.463 39.04 227.263 38.48C226.063 37.8933 225.143 37.1067 224.503 36.12C223.863 35.1333 223.543 34.0267 223.543 32.8C223.543 31.52 223.849 30.4 224.463 29.44C225.103 28.48 226.103 27.7333 227.463 27.2C228.823 26.64 230.596 26.36 232.783 26.36H238.503V30H233.463C231.996 30 230.983 30.24 230.423 30.72C229.889 31.2 229.623 31.8 229.623 32.52C229.623 33.32 229.929 33.96 230.543 34.44C231.183 34.8933 232.049 35.12 233.143 35.12C234.183 35.12 235.116 34.88 235.943 34.4C236.769 33.8933 237.369 33.16 237.743 32.2L238.703 35.08C238.249 36.4667 237.423 37.52 236.223 38.24C235.023 38.96 233.476 39.32 231.583 39.32ZM262.83 39V34.8L262.43 33.88V26.36C262.43 25.0267 262.017 23.9867 261.19 23.24C260.39 22.4933 259.15 22.12 257.47 22.12C256.323 22.12 255.19 22.3067 254.07 22.68C252.977 23.0267 252.043 23.5067 251.27 24.12L249.03 19.76C250.203 18.9333 251.617 18.2933 253.27 17.84C254.923 17.3867 256.603 17.16 258.31 17.16C261.59 17.16 264.137 17.9333 265.95 19.48C267.763 21.0267 268.67 23.44 268.67 26.72V39H262.83ZM256.27 39.32C254.59 39.32 253.15 39.04 251.95 38.48C250.75 37.8933 249.83 37.1067 249.19 36.12C248.55 35.1333 248.23 34.0267 248.23 32.8C248.23 31.52 248.537 30.4 249.15 29.44C249.79 28.48 250.79 27.7333 252.15 27.2C253.51 26.64 255.283 26.36 257.47 26.36H263.19V30H258.15C256.683 30 255.67 30.24 255.11 30.72C254.577 31.2 254.31 31.8 254.31 32.52C254.31 33.32 254.617 33.96 255.23 34.44C255.87 34.8933 256.737 35.12 257.83 35.12C258.87 35.12 259.803 34.88 260.63 34.4C261.457 33.8933 262.057 33.16 262.43 32.2L263.39 35.08C262.937 36.4667 262.11 37.52 260.91 38.24C259.71 38.96 258.163 39.32 256.27 39.32ZM287.398 17.16C289.104 17.16 290.624 17.5067 291.958 18.2C293.318 18.8667 294.384 19.9067 295.158 21.32C295.931 22.7067 296.318 24.4933 296.318 26.68V39H290.078V27.64C290.078 25.9067 289.691 24.6267 288.918 23.8C288.171 22.9733 287.104 22.56 285.718 22.56C284.731 22.56 283.838 22.7733 283.038 23.2C282.264 23.6 281.651 24.2267 281.198 25.08C280.771 25.9333 280.558 27.0267 280.558 28.36V39H274.318V17.48H280.278V23.44L279.158 21.64C279.931 20.2 281.038 19.0933 282.478 18.32C283.918 17.5467 285.558 17.16 287.398 17.16ZM316.014 39.48C313.8 39.48 311.747 39.12 309.854 38.4C307.987 37.68 306.36 36.6667 304.974 35.36C303.614 34.0533 302.547 32.52 301.774 30.76C301.027 29 300.654 27.08 300.654 25C300.654 22.92 301.027 21 301.774 19.24C302.547 17.48 303.627 15.9467 305.014 14.64C306.4 13.3333 308.027 12.32 309.894 11.6C311.76 10.88 313.787 10.52 315.974 10.52C318.187 10.52 320.214 10.88 322.054 11.6C323.92 12.32 325.534 13.3333 326.894 14.64C328.28 15.9467 329.36 17.48 330.134 19.24C330.907 20.9733 331.294 22.8933 331.294 25C331.294 27.08 330.907 29.0133 330.134 30.8C329.36 32.56 328.28 34.0933 326.894 35.4C325.534 36.68 323.92 37.68 322.054 38.4C320.214 39.12 318.2 39.48 316.014 39.48ZM315.974 33.96C317.227 33.96 318.374 33.7467 319.414 33.32C320.48 32.8933 321.414 32.28 322.214 31.48C323.014 30.68 323.627 29.7333 324.054 28.64C324.507 27.5467 324.734 26.3333 324.734 25C324.734 23.6667 324.507 22.4533 324.054 21.36C323.627 20.2667 323.014 19.32 322.214 18.52C321.44 17.72 320.52 17.1067 319.454 16.68C318.387 16.2533 317.227 16.04 315.974 16.04C314.72 16.04 313.56 16.2533 312.494 16.68C311.454 17.1067 310.534 17.72 309.734 18.52C308.934 19.32 308.307 20.2667 307.854 21.36C307.427 22.4533 307.214 23.6667 307.214 25C307.214 26.3067 307.427 27.52 307.854 28.64C308.307 29.7333 308.92 30.68 309.694 31.48C310.494 32.28 311.427 32.8933 312.494 33.32C313.56 33.7467 314.72 33.96 315.974 33.96ZM341.564 39L332.524 17.48H338.964L346.484 36H343.284L351.084 17.48H357.084L348.004 39H341.564ZM369.724 39.32C367.271 39.32 365.111 38.84 363.244 37.88C361.404 36.92 359.977 35.6133 358.964 33.96C357.951 32.28 357.444 30.3733 357.444 28.24C357.444 26.08 357.937 24.1733 358.924 22.52C359.937 20.84 361.311 19.5333 363.044 18.6C364.777 17.64 366.737 17.16 368.924 17.16C371.031 17.16 372.924 17.6133 374.604 18.52C376.311 19.4 377.657 20.68 378.644 22.36C379.631 24.0133 380.124 26 380.124 28.32C380.124 28.56 380.111 28.84 380.084 29.16C380.057 29.4533 380.031 29.7333 380.004 30H362.524V26.36H376.724L374.324 27.44C374.324 26.32 374.097 25.3467 373.644 24.52C373.191 23.6933 372.564 23.0533 371.764 22.6C370.964 22.12 370.031 21.88 368.964 21.88C367.897 21.88 366.951 22.12 366.124 22.6C365.324 23.0533 364.697 23.7067 364.244 24.56C363.791 25.3867 363.564 26.3733 363.564 27.52V28.48C363.564 29.6533 363.817 30.6933 364.324 31.6C364.857 32.48 365.591 33.16 366.524 33.64C367.484 34.0933 368.604 34.32 369.884 34.32C371.031 34.32 372.031 34.1467 372.884 33.8C373.764 33.4533 374.564 32.9333 375.284 32.24L378.604 35.84C377.617 36.96 376.377 37.8267 374.884 38.44C373.391 39.0267 371.671 39.32 369.724 39.32ZM384.278 39V17.48H390.238V23.56L389.398 21.8C390.038 20.28 391.065 19.1333 392.478 18.36C393.892 17.56 395.612 17.16 397.638 17.16V22.92C397.372 22.8933 397.132 22.88 396.918 22.88C396.705 22.8533 396.478 22.84 396.238 22.84C394.532 22.84 393.145 23.3333 392.078 24.32C391.038 25.28 390.518 26.7867 390.518 28.84V39H384.278ZM402.851 39V17C402.851 14.5733 403.571 12.64 405.011 11.2C406.451 9.73333 408.504 9 411.171 9C412.078 9 412.944 9.09333 413.771 9.28C414.624 9.46666 415.344 9.76 415.931 10.16L414.291 14.68C413.944 14.44 413.558 14.2533 413.131 14.12C412.704 13.9867 412.251 13.92 411.771 13.92C410.864 13.92 410.158 14.1867 409.651 14.72C409.171 15.2267 408.931 16 408.931 17.04V19.04L409.091 21.72V39H402.851ZM399.531 22.76V17.96H414.451V22.76H399.531ZM417.971 39V9.32H424.211V39H417.971ZM440.222 39.32C437.928 39.32 435.888 38.84 434.102 37.88C432.342 36.92 430.942 35.6133 429.902 33.96C428.888 32.28 428.382 30.3733 428.382 28.24C428.382 26.08 428.888 24.1733 429.902 22.52C430.942 20.84 432.342 19.5333 434.102 18.6C435.888 17.64 437.928 17.16 440.222 17.16C442.488 17.16 444.515 17.64 446.302 18.6C448.088 19.5333 449.488 20.8267 450.502 22.48C451.515 24.1333 452.022 26.0533 452.022 28.24C452.022 30.3733 451.515 32.28 450.502 33.96C449.488 35.6133 448.088 36.92 446.302 37.88C444.515 38.84 442.488 39.32 440.222 39.32ZM440.222 34.2C441.262 34.2 442.195 33.96 443.022 33.48C443.848 33 444.502 32.32 444.982 31.44C445.462 30.5333 445.702 29.4667 445.702 28.24C445.702 26.9867 445.462 25.92 444.982 25.04C444.502 24.16 443.848 23.48 443.022 23C442.195 22.52 441.262 22.28 440.222 22.28C439.182 22.28 438.248 22.52 437.422 23C436.595 23.48 435.928 24.16 435.422 25.04C434.942 25.92 434.702 26.9867 434.702 28.24C434.702 29.4667 434.942 30.5333 435.422 31.44C435.928 32.32 436.595 33 437.422 33.48C438.248 33.96 439.182 34.2 440.222 34.2ZM460.527 39L452.767 17.48H458.647L465.087 36H462.287L469.007 17.48H474.287L480.807 36H478.007L484.647 17.48H490.167L482.367 39H476.327L470.607 23.12H472.447L466.527 39H460.527Z" fill="#0D6EFD"/>
</svg>
